<mxfile host="65bd71144e">
    <diagram id="oZNaELXoDnZHSYuUNWVx" name="ページ1">
        <mxGraphModel dx="386" dy="419" grid="1" gridSize="10" guides="1" tooltips="1" connect="1" arrows="1" fold="1" page="1" pageScale="1" pageWidth="827" pageHeight="1169" math="0" shadow="0">
            <root>
                <mxCell id="0"/>
                <mxCell id="1" parent="0"/>
                <mxCell id="2" value="事務職員" style="shape=umlActor;verticalLabelPosition=bottom;verticalAlign=top;html=1;" parent="1" vertex="1">
                    <mxGeometry x="70" y="90" width="30" height="60" as="geometry"/>
                </mxCell>
                <mxCell id="3" value="返却メニュー" style="shape=umlBoundary;whiteSpace=wrap;html=1;fillColor=#D5E8D4;" parent="1" vertex="1">
                    <mxGeometry x="230" y="40" width="100" height="80" as="geometry"/>
                </mxCell>
                <mxCell id="4" value="返却メニューをクリックする" style="html=1;verticalAlign=bottom;endArrow=block;curved=0;rounded=0;entryX=0.003;entryY=0.475;entryDx=0;entryDy=0;entryPerimeter=0;" parent="1" target="3" edge="1">
                    <mxGeometry width="80" relative="1" as="geometry">
                        <mxPoint x="100" y="130" as="sourcePoint"/>
                        <mxPoint x="180" y="130" as="targetPoint"/>
                    </mxGeometry>
                </mxCell>
                <mxCell id="5" value="返却一覧画面表示" style="ellipse;shape=umlControl;whiteSpace=wrap;html=1;fillColor=#F8CECC;" parent="1" vertex="1">
                    <mxGeometry x="400" y="40" width="70" height="80" as="geometry"/>
                </mxCell>
                <mxCell id="6" value="返却完了画面" style="shape=umlBoundary;whiteSpace=wrap;html=1;fillColor=#D5E8D4;" parent="1" vertex="1">
                    <mxGeometry x="580" y="200" width="80" height="70" as="geometry"/>
                </mxCell>
                <mxCell id="7" value="" style="html=1;verticalAlign=bottom;endArrow=block;curved=0;rounded=0;exitX=1.01;exitY=0.475;exitDx=0;exitDy=0;exitPerimeter=0;entryX=0.005;entryY=0.533;entryDx=0;entryDy=0;entryPerimeter=0;" parent="1" source="3" target="5" edge="1">
                    <mxGeometry width="80" relative="1" as="geometry">
                        <mxPoint x="334" y="90" as="sourcePoint"/>
                        <mxPoint x="414" y="90" as="targetPoint"/>
                    </mxGeometry>
                </mxCell>
                <mxCell id="8" value="管理番号を入力" style="html=1;verticalAlign=bottom;endArrow=block;curved=0;rounded=0;exitX=1;exitY=1;exitDx=0;exitDy=0;exitPerimeter=0;entryX=-0.017;entryY=0.517;entryDx=0;entryDy=0;entryPerimeter=0;" parent="1" source="2" target="10" edge="1">
                    <mxGeometry width="80" relative="1" as="geometry">
                        <mxPoint x="80" y="270" as="sourcePoint"/>
                        <mxPoint x="170" y="220" as="targetPoint"/>
                    </mxGeometry>
                </mxCell>
                <mxCell id="9" value="" style="html=1;verticalAlign=bottom;endArrow=block;curved=0;rounded=0;exitX=0.414;exitY=1.05;exitDx=0;exitDy=0;exitPerimeter=0;entryX=0.937;entryY=0.217;entryDx=0;entryDy=0;entryPerimeter=0;" parent="1" source="5" target="10" edge="1">
                    <mxGeometry width="80" relative="1" as="geometry">
                        <mxPoint x="370" y="270" as="sourcePoint"/>
                        <mxPoint x="250" y="220" as="targetPoint"/>
                    </mxGeometry>
                </mxCell>
                <mxCell id="10" value="返却一覧画面" style="shape=umlBoundary;whiteSpace=wrap;html=1;fillColor=#D5E8D4;" parent="1" vertex="1">
                    <mxGeometry x="210" y="170" width="100" height="80" as="geometry"/>
                </mxCell>
                <mxCell id="11" value="メッセージ表示" style="ellipse;shape=umlControl;whiteSpace=wrap;html=1;fillColor=#F8CECC;" parent="1" vertex="1">
                    <mxGeometry x="640" y="380" width="70" height="80" as="geometry"/>
                </mxCell>
                <mxCell id="12" value="内容を検証" style="ellipse;shape=umlControl;whiteSpace=wrap;html=1;fillColor=#F8CECC;" parent="1" vertex="1">
                    <mxGeometry x="230" y="310" width="70" height="80" as="geometry"/>
                </mxCell>
                <mxCell id="13" value="" style="html=1;verticalAlign=bottom;endArrow=block;curved=0;rounded=0;exitX=0.617;exitY=1.008;exitDx=0;exitDy=0;exitPerimeter=0;entryX=0.567;entryY=0.125;entryDx=0;entryDy=0;entryPerimeter=0;" parent="1" source="10" target="12" edge="1">
                    <mxGeometry width="80" relative="1" as="geometry">
                        <mxPoint x="230" y="280" as="sourcePoint"/>
                        <mxPoint x="420" y="210" as="targetPoint"/>
                    </mxGeometry>
                </mxCell>
                <mxCell id="14" value="返却ボタンをクリック" style="edgeLabel;html=1;align=center;verticalAlign=middle;resizable=0;points=[];" parent="13" vertex="1" connectable="0">
                    <mxGeometry x="-0.6057" y="1" relative="1" as="geometry">
                        <mxPoint y="5" as="offset"/>
                    </mxGeometry>
                </mxCell>
                <mxCell id="15" value="管理番号が登録されてなかった場合&lt;div&gt;図書の返却期限が過ぎていた場合&lt;/div&gt;&lt;div&gt;図書が貸し出し中でなかった場合&lt;/div&gt;&lt;div&gt;&lt;span style=&quot;color: rgb(0, 0, 0);&quot;&gt;返却する図書が一冊も入力されていない場合&lt;/span&gt;&lt;/div&gt;" style="html=1;verticalAlign=bottom;endArrow=block;curved=0;rounded=0;entryX=-0.014;entryY=0.483;entryDx=0;entryDy=0;entryPerimeter=0;exitX=0.676;exitY=0.992;exitDx=0;exitDy=0;exitPerimeter=0;" parent="1" source="12" edge="1">
                    <mxGeometry width="80" relative="1" as="geometry">
                        <mxPoint x="268.64" y="410" as="sourcePoint"/>
                        <mxPoint x="640" y="437.28" as="targetPoint"/>
                        <Array as="points">
                            <mxPoint x="639.98" y="437.64"/>
                        </Array>
                    </mxGeometry>
                </mxCell>
                <mxCell id="16" value="" style="html=1;verticalAlign=bottom;endArrow=block;curved=0;rounded=0;exitX=1.014;exitY=0.542;exitDx=0;exitDy=0;exitPerimeter=0;entryX=1.014;entryY=0.525;entryDx=0;entryDy=0;entryPerimeter=0;" parent="1" source="11" target="5" edge="1">
                    <mxGeometry width="80" relative="1" as="geometry">
                        <mxPoint x="610" y="330" as="sourcePoint"/>
                        <mxPoint x="800" y="70" as="targetPoint"/>
                        <Array as="points">
                            <mxPoint x="760" y="430"/>
                            <mxPoint x="760" y="80"/>
                        </Array>
                    </mxGeometry>
                </mxCell>
                <mxCell id="17" value="" style="edgeStyle=orthogonalEdgeStyle;rounded=0;orthogonalLoop=1;jettySize=auto;html=1;exitX=1.014;exitY=0.517;exitDx=0;exitDy=0;exitPerimeter=0;" parent="1" source="18" target="6" edge="1">
                    <mxGeometry relative="1" as="geometry">
                        <mxPoint x="510" y="230" as="sourcePoint"/>
                    </mxGeometry>
                </mxCell>
                <mxCell id="18" value="図書のDB更新" style="ellipse;shape=umlControl;whiteSpace=wrap;html=1;fillColor=#F8CECC;" parent="1" vertex="1">
                    <mxGeometry x="450" y="260" width="70" height="80" as="geometry"/>
                </mxCell>
                <mxCell id="19" value="図書情報" style="ellipse;shape=umlEntity;whiteSpace=wrap;html=1;fillColor=#D4E1F5;" parent="1" vertex="1">
                    <mxGeometry x="400" y="170" width="80" height="80" as="geometry"/>
                </mxCell>
                <mxCell id="20" value="" style="html=1;verticalAlign=bottom;endArrow=block;curved=0;rounded=0;entryX=0.5;entryY=1;entryDx=0;entryDy=0;exitX=0.786;exitY=0.208;exitDx=0;exitDy=0;exitPerimeter=0;" parent="1" source="12" target="19" edge="1">
                    <mxGeometry width="80" relative="1" as="geometry">
                        <mxPoint x="380" y="295" as="sourcePoint"/>
                        <mxPoint x="460" y="295" as="targetPoint"/>
                    </mxGeometry>
                </mxCell>
                <mxCell id="21" value="追加" style="html=1;verticalAlign=bottom;endArrow=block;curved=0;rounded=0;exitX=0;exitY=0.5;exitDx=0;exitDy=0;entryX=1.003;entryY=0.517;entryDx=0;entryDy=0;entryPerimeter=0;" parent="1" source="19" target="10" edge="1">
                    <mxGeometry width="80" relative="1" as="geometry">
                        <mxPoint x="340" y="230" as="sourcePoint"/>
                        <mxPoint x="420" y="230" as="targetPoint"/>
                    </mxGeometry>
                </mxCell>
                <mxCell id="22" value="" style="html=1;verticalAlign=bottom;endArrow=block;curved=0;rounded=0;exitX=0.986;exitY=0.533;exitDx=0;exitDy=0;exitPerimeter=0;entryX=0;entryY=0.625;entryDx=0;entryDy=0;entryPerimeter=0;" parent="1" source="12" target="18" edge="1">
                    <mxGeometry width="80" relative="1" as="geometry">
                        <mxPoint x="340" y="230" as="sourcePoint"/>
                        <mxPoint x="420" y="230" as="targetPoint"/>
                    </mxGeometry>
                </mxCell>
                <mxCell id="23" value="図書が予約されている場合" style="html=1;verticalAlign=bottom;endArrow=block;curved=0;rounded=0;exitX=1;exitY=0.75;exitDx=0;exitDy=0;exitPerimeter=0;entryX=0.286;entryY=0.125;entryDx=0;entryDy=0;entryPerimeter=0;" parent="1" source="18" target="11" edge="1">
                    <mxGeometry width="80" relative="1" as="geometry">
                        <mxPoint x="560" y="249" as="sourcePoint"/>
                        <mxPoint x="658.98" y="210.64" as="targetPoint"/>
                    </mxGeometry>
                </mxCell>
            </root>
        </mxGraphModel>
    </diagram>
</mxfile>